<mxfile host="app.diagrams.net" modified="2020-09-15T01:08:35.193Z" agent="5.0 (Windows NT 10.0; Win64; x64) AppleWebKit/537.36 (KHTML, like Gecko) Chrome/85.0.4183.102 Safari/537.36" etag="aHONUIHrapp_LCdFp_Nq" version="13.7.1" type="github">
  <diagram id="5Tak8ZhNrjhvs5gfhOgw" name="Page-1">
    <mxGraphModel dx="2272" dy="762" grid="1" gridSize="10" guides="1" tooltips="1" connect="1" arrows="1" fold="1" page="1" pageScale="1" pageWidth="850" pageHeight="1100" math="0" shadow="0">
      <root>
        <mxCell id="0" />
        <mxCell id="1" parent="0" />
        <mxCell id="Yf9Q6vRLoOKOFA073ZTA-52" value="&lt;div&gt;&lt;span&gt;API PEDIDO&lt;/span&gt;&lt;/div&gt;" style="rounded=0;whiteSpace=wrap;html=1;fillColor=#f5f5f5;strokeColor=#666666;fontColor=#333333;align=left;" parent="1" vertex="1">
          <mxGeometry x="-720" y="105.5" width="960" height="131" as="geometry" />
        </mxCell>
        <mxCell id="Yf9Q6vRLoOKOFA073ZTA-51" value="API PAGAMENTO" style="rounded=0;whiteSpace=wrap;html=1;fillColor=#f5f5f5;strokeColor=#666666;fontColor=#333333;align=left;" parent="1" vertex="1">
          <mxGeometry x="-720" y="267" width="960" height="283" as="geometry" />
        </mxCell>
        <mxCell id="Yf9Q6vRLoOKOFA073ZTA-1" value="Producer&lt;br&gt;(Enviar Pedido)" style="rounded=0;whiteSpace=wrap;html=1;fillColor=#d5e8d4;strokeColor=#82b366;" parent="1" vertex="1">
          <mxGeometry x="-260" y="145" width="120" height="60" as="geometry" />
        </mxCell>
        <mxCell id="Yf9Q6vRLoOKOFA073ZTA-3" value="Enviar Pedido" style="shape=flexArrow;endArrow=classic;html=1;exitX=1;exitY=0.5;exitDx=0;exitDy=0;fillColor=#fff2cc;strokeColor=#d6b656;entryX=0;entryY=0.5;entryDx=0;entryDy=0;" parent="1" source="Yf9Q6vRLoOKOFA073ZTA-1" target="Yf9Q6vRLoOKOFA073ZTA-4" edge="1">
          <mxGeometry width="50" height="50" relative="1" as="geometry">
            <mxPoint x="400" y="407" as="sourcePoint" />
            <mxPoint x="-90" y="177" as="targetPoint" />
          </mxGeometry>
        </mxCell>
        <mxCell id="Yf9Q6vRLoOKOFA073ZTA-4" value="&lt;span&gt;Kafka&lt;/span&gt;&lt;br&gt;&lt;span&gt;(PedidoCriadoEvent)&lt;/span&gt;" style="rounded=0;whiteSpace=wrap;html=1;fillColor=#f8cecc;strokeColor=#b85450;" parent="1" vertex="1">
          <mxGeometry y="147" width="140" height="60" as="geometry" />
        </mxCell>
        <mxCell id="Yf9Q6vRLoOKOFA073ZTA-6" value="" style="shape=flexArrow;endArrow=classic;html=1;exitX=1;exitY=0.5;exitDx=0;exitDy=0;fillColor=#fff2cc;strokeColor=#d6b656;entryX=-0.017;entryY=0.178;entryDx=0;entryDy=0;entryPerimeter=0;" parent="1" source="Yf9Q6vRLoOKOFA073ZTA-4" target="Yf9Q6vRLoOKOFA073ZTA-22" edge="1">
          <mxGeometry width="50" height="50" relative="1" as="geometry">
            <mxPoint x="190" y="320" as="sourcePoint" />
            <mxPoint x="327" y="176.5" as="targetPoint" />
          </mxGeometry>
        </mxCell>
        <mxCell id="Yf9Q6vRLoOKOFA073ZTA-21" value="Enviar para o Kafka" style="edgeLabel;html=1;align=center;verticalAlign=middle;resizable=0;points=[];" parent="Yf9Q6vRLoOKOFA073ZTA-6" vertex="1" connectable="0">
          <mxGeometry x="-0.0933" relative="1" as="geometry">
            <mxPoint as="offset" />
          </mxGeometry>
        </mxCell>
        <mxCell id="Yf9Q6vRLoOKOFA073ZTA-7" value="Azure Function Consumer&lt;br&gt;(PedidoCriadoEvent)" style="shape=document;whiteSpace=wrap;html=1;boundedLbl=1;fillColor=#d5e8d4;strokeColor=#82b366;" parent="1" vertex="1">
          <mxGeometry x="465" y="111" width="145" height="100" as="geometry" />
        </mxCell>
        <mxCell id="Yf9Q6vRLoOKOFA073ZTA-9" value="Azure Function Consumer&lt;br&gt;(PedidoCriadoEvent)" style="shape=document;whiteSpace=wrap;html=1;boundedLbl=1;fillColor=#d5e8d4;strokeColor=#82b366;" parent="1" vertex="1">
          <mxGeometry x="465" y="257" width="145" height="100" as="geometry" />
        </mxCell>
        <mxCell id="Yf9Q6vRLoOKOFA073ZTA-11" value="Api Entrega Endpoint&lt;br&gt;(Criar Pedido)" style="rounded=1;whiteSpace=wrap;html=1;" parent="1" vertex="1">
          <mxGeometry x="664" y="131" width="157.5" height="60" as="geometry" />
        </mxCell>
        <mxCell id="Yf9Q6vRLoOKOFA073ZTA-12" value="Api Pagamento Endpoint&lt;br&gt;(Criar Pedido)" style="rounded=1;whiteSpace=wrap;html=1;" parent="1" vertex="1">
          <mxGeometry x="664" y="277" width="150" height="60" as="geometry" />
        </mxCell>
        <mxCell id="Yf9Q6vRLoOKOFA073ZTA-18" value="Api Entrega Endpoint&lt;br&gt;(Realizar pagamento)" style="rounded=1;whiteSpace=wrap;html=1;" parent="1" vertex="1">
          <mxGeometry x="-670" y="305" width="130" height="60" as="geometry" />
        </mxCell>
        <mxCell id="Yf9Q6vRLoOKOFA073ZTA-19" value="&lt;span&gt;Kafka&lt;/span&gt;&lt;br&gt;&lt;span&gt;(PedidoAtualizadoEvent)&lt;/span&gt;" style="rounded=0;whiteSpace=wrap;html=1;fillColor=#f8cecc;strokeColor=#b85450;" parent="1" vertex="1">
          <mxGeometry y="305" width="140" height="60" as="geometry" />
        </mxCell>
        <mxCell id="Yf9Q6vRLoOKOFA073ZTA-22" value="Kafka" style="rounded=0;whiteSpace=wrap;html=1;fillColor=#e1d5e7;strokeColor=#9673a6;" parent="1" vertex="1">
          <mxGeometry x="293" y="99" width="120" height="450" as="geometry" />
        </mxCell>
        <mxCell id="Yf9Q6vRLoOKOFA073ZTA-23" value="" style="shape=flexArrow;endArrow=classic;html=1;fillColor=#fff2cc;strokeColor=#d6b656;entryX=-0.017;entryY=0.529;entryDx=0;entryDy=0;exitX=1;exitY=0.5;exitDx=0;exitDy=0;entryPerimeter=0;" parent="1" source="Yf9Q6vRLoOKOFA073ZTA-19" target="Yf9Q6vRLoOKOFA073ZTA-22" edge="1">
          <mxGeometry width="50" height="50" relative="1" as="geometry">
            <mxPoint x="-57" y="381" as="sourcePoint" />
            <mxPoint x="330" y="380" as="targetPoint" />
          </mxGeometry>
        </mxCell>
        <mxCell id="Yf9Q6vRLoOKOFA073ZTA-24" value="Enviar para o Kafka" style="edgeLabel;html=1;align=center;verticalAlign=middle;resizable=0;points=[];" parent="Yf9Q6vRLoOKOFA073ZTA-23" vertex="1" connectable="0">
          <mxGeometry x="-0.0933" relative="1" as="geometry">
            <mxPoint as="offset" />
          </mxGeometry>
        </mxCell>
        <mxCell id="Yf9Q6vRLoOKOFA073ZTA-25" value="DB&lt;br&gt;Entrega" style="shape=cylinder;whiteSpace=wrap;html=1;boundedLbl=1;backgroundOutline=1;fillColor=#e1d5e7;strokeColor=#9673a6;" parent="1" vertex="1">
          <mxGeometry x="804" y="156" width="60" height="80" as="geometry" />
        </mxCell>
        <mxCell id="Yf9Q6vRLoOKOFA073ZTA-26" value="DB&lt;br&gt;Pagamento" style="shape=cylinder;whiteSpace=wrap;html=1;boundedLbl=1;backgroundOutline=1;fillColor=#e1d5e7;strokeColor=#9673a6;" parent="1" vertex="1">
          <mxGeometry x="804" y="303" width="60" height="80" as="geometry" />
        </mxCell>
        <mxCell id="Yf9Q6vRLoOKOFA073ZTA-28" value="Producer&lt;br&gt;(Enviar Pedido Atualizado)" style="rounded=0;whiteSpace=wrap;html=1;fillColor=#d5e8d4;strokeColor=#82b366;" parent="1" vertex="1">
          <mxGeometry x="-260" y="304" width="120" height="60" as="geometry" />
        </mxCell>
        <mxCell id="Yf9Q6vRLoOKOFA073ZTA-29" value="Api Pedido Endpoint&lt;br&gt;(Criar Pedido)" style="rounded=1;whiteSpace=wrap;html=1;" parent="1" vertex="1">
          <mxGeometry x="-560" y="145" width="130" height="60" as="geometry" />
        </mxCell>
        <mxCell id="Yf9Q6vRLoOKOFA073ZTA-30" value="Criar Pedido" style="shape=flexArrow;endArrow=classic;html=1;exitX=1;exitY=0.5;exitDx=0;exitDy=0;fillColor=#fff2cc;strokeColor=#d6b656;entryX=0;entryY=0.5;entryDx=0;entryDy=0;" parent="1" source="Yf9Q6vRLoOKOFA073ZTA-29" target="Yf9Q6vRLoOKOFA073ZTA-1" edge="1">
          <mxGeometry width="50" height="50" relative="1" as="geometry">
            <mxPoint x="-335" y="145" as="sourcePoint" />
            <mxPoint x="-290" y="195" as="targetPoint" />
          </mxGeometry>
        </mxCell>
        <mxCell id="Yf9Q6vRLoOKOFA073ZTA-31" value="Enviar Pedido" style="shape=flexArrow;endArrow=classic;html=1;exitX=1;exitY=0.5;exitDx=0;exitDy=0;fillColor=#fff2cc;strokeColor=#d6b656;entryX=0;entryY=0.5;entryDx=0;entryDy=0;" parent="1" source="Yf9Q6vRLoOKOFA073ZTA-28" target="Yf9Q6vRLoOKOFA073ZTA-19" edge="1">
          <mxGeometry width="50" height="50" relative="1" as="geometry">
            <mxPoint x="-130" y="185" as="sourcePoint" />
            <mxPoint x="10" y="187" as="targetPoint" />
          </mxGeometry>
        </mxCell>
        <mxCell id="Yf9Q6vRLoOKOFA073ZTA-32" value="" style="endArrow=classic;html=1;entryX=-0.028;entryY=0.43;entryDx=0;entryDy=0;entryPerimeter=0;exitX=1.025;exitY=0.122;exitDx=0;exitDy=0;exitPerimeter=0;" parent="1" source="Yf9Q6vRLoOKOFA073ZTA-22" target="Yf9Q6vRLoOKOFA073ZTA-7" edge="1">
          <mxGeometry width="50" height="50" relative="1" as="geometry">
            <mxPoint x="423" y="160" as="sourcePoint" />
            <mxPoint x="413" y="300" as="targetPoint" />
          </mxGeometry>
        </mxCell>
        <mxCell id="Yf9Q6vRLoOKOFA073ZTA-33" value="" style="endArrow=classic;html=1;entryX=0;entryY=0.5;entryDx=0;entryDy=0;exitX=1.008;exitY=0.136;exitDx=0;exitDy=0;exitPerimeter=0;" parent="1" source="Yf9Q6vRLoOKOFA073ZTA-22" target="Yf9Q6vRLoOKOFA073ZTA-9" edge="1">
          <mxGeometry width="50" height="50" relative="1" as="geometry">
            <mxPoint x="414" y="150" as="sourcePoint" />
            <mxPoint x="523" y="300.1" as="targetPoint" />
          </mxGeometry>
        </mxCell>
        <mxCell id="Yf9Q6vRLoOKOFA073ZTA-34" value="" style="endArrow=classic;html=1;entryX=0;entryY=0.5;entryDx=0;entryDy=0;exitX=1;exitY=0.5;exitDx=0;exitDy=0;" parent="1" source="Yf9Q6vRLoOKOFA073ZTA-7" target="Yf9Q6vRLoOKOFA073ZTA-11" edge="1">
          <mxGeometry width="50" height="50" relative="1" as="geometry">
            <mxPoint x="358" y="163.89999999999998" as="sourcePoint" />
            <mxPoint x="470.94000000000005" y="164" as="targetPoint" />
          </mxGeometry>
        </mxCell>
        <mxCell id="Yf9Q6vRLoOKOFA073ZTA-35" value="" style="endArrow=classic;html=1;entryX=0;entryY=0.5;entryDx=0;entryDy=0;" parent="1" source="Yf9Q6vRLoOKOFA073ZTA-9" target="Yf9Q6vRLoOKOFA073ZTA-12" edge="1">
          <mxGeometry width="50" height="50" relative="1" as="geometry">
            <mxPoint x="655" y="280" as="sourcePoint" />
            <mxPoint x="760" y="280" as="targetPoint" />
          </mxGeometry>
        </mxCell>
        <mxCell id="Yf9Q6vRLoOKOFA073ZTA-36" value="Azure Function Consumer&lt;br&gt;(PedidoAtualizadoEvent)" style="shape=document;whiteSpace=wrap;html=1;boundedLbl=1;fillColor=#d5e8d4;strokeColor=#82b366;" parent="1" vertex="1">
          <mxGeometry x="465" y="440" width="145" height="100" as="geometry" />
        </mxCell>
        <mxCell id="Yf9Q6vRLoOKOFA073ZTA-37" value="" style="endArrow=classic;html=1;entryX=0;entryY=0.5;entryDx=0;entryDy=0;" parent="1" source="Yf9Q6vRLoOKOFA073ZTA-22" target="Yf9Q6vRLoOKOFA073ZTA-36" edge="1">
          <mxGeometry width="50" height="50" relative="1" as="geometry">
            <mxPoint x="423.96000000000004" y="170.20000000000005" as="sourcePoint" />
            <mxPoint x="543" y="317" as="targetPoint" />
          </mxGeometry>
        </mxCell>
        <mxCell id="Yf9Q6vRLoOKOFA073ZTA-40" value="" style="endArrow=classic;html=1;entryX=0.5;entryY=0;entryDx=0;entryDy=0;exitX=1;exitY=0.5;exitDx=0;exitDy=0;" parent="1" source="Yf9Q6vRLoOKOFA073ZTA-36" target="Yf9Q6vRLoOKOFA073ZTA-11" edge="1">
          <mxGeometry width="50" height="50" relative="1" as="geometry">
            <mxPoint x="730" y="458.33333333333326" as="sourcePoint" />
            <mxPoint x="850" y="549" as="targetPoint" />
            <Array as="points">
              <mxPoint x="910" y="490" />
              <mxPoint x="910" y="300" />
              <mxPoint x="910" y="80" />
              <mxPoint x="794" y="80" />
            </Array>
          </mxGeometry>
        </mxCell>
        <mxCell id="Yf9Q6vRLoOKOFA073ZTA-41" value="Api Entrega Endpoint&lt;br&gt;(Webhook Pagamento)" style="rounded=1;whiteSpace=wrap;html=1;" parent="1" vertex="1">
          <mxGeometry x="-670" y="450" width="130" height="60" as="geometry" />
        </mxCell>
        <mxCell id="Yf9Q6vRLoOKOFA073ZTA-42" value="&lt;span&gt;Kafka&lt;/span&gt;&lt;br&gt;&lt;span&gt;(PedidoAtualizadoEvent)&lt;/span&gt;" style="rounded=0;whiteSpace=wrap;html=1;fillColor=#f8cecc;strokeColor=#b85450;" parent="1" vertex="1">
          <mxGeometry y="451" width="140" height="60" as="geometry" />
        </mxCell>
        <mxCell id="Yf9Q6vRLoOKOFA073ZTA-43" value="Processar Pagamento" style="shape=flexArrow;endArrow=classic;html=1;exitX=1;exitY=0.5;exitDx=0;exitDy=0;fillColor=#fff2cc;strokeColor=#d6b656;entryX=0;entryY=0.5;entryDx=0;entryDy=0;" parent="1" source="Yf9Q6vRLoOKOFA073ZTA-41" target="Yf9Q6vRLoOKOFA073ZTA-45" edge="1">
          <mxGeometry width="50" height="50" relative="1" as="geometry">
            <mxPoint x="-305" y="430" as="sourcePoint" />
            <mxPoint x="-195" y="430" as="targetPoint" />
          </mxGeometry>
        </mxCell>
        <mxCell id="Yf9Q6vRLoOKOFA073ZTA-45" value="Producer&lt;br&gt;(Enviar Pedido Atualizado)" style="rounded=0;whiteSpace=wrap;html=1;fillColor=#d5e8d4;strokeColor=#82b366;" parent="1" vertex="1">
          <mxGeometry x="-260" y="450" width="120" height="60" as="geometry" />
        </mxCell>
        <mxCell id="Yf9Q6vRLoOKOFA073ZTA-46" value="Enviar Pedido" style="shape=flexArrow;endArrow=classic;html=1;exitX=1;exitY=0.5;exitDx=0;exitDy=0;fillColor=#fff2cc;strokeColor=#d6b656;entryX=0;entryY=0.5;entryDx=0;entryDy=0;" parent="1" source="Yf9Q6vRLoOKOFA073ZTA-45" target="Yf9Q6vRLoOKOFA073ZTA-42" edge="1">
          <mxGeometry width="50" height="50" relative="1" as="geometry">
            <mxPoint x="-130" y="331" as="sourcePoint" />
            <mxPoint x="10" y="333" as="targetPoint" />
          </mxGeometry>
        </mxCell>
        <mxCell id="Yf9Q6vRLoOKOFA073ZTA-47" value="" style="shape=flexArrow;endArrow=classic;html=1;fillColor=#fff2cc;strokeColor=#d6b656;exitX=1;exitY=0.5;exitDx=0;exitDy=0;" parent="1" source="Yf9Q6vRLoOKOFA073ZTA-42" edge="1">
          <mxGeometry width="50" height="50" relative="1" as="geometry">
            <mxPoint x="150" y="481" as="sourcePoint" />
            <mxPoint x="290" y="482" as="targetPoint" />
          </mxGeometry>
        </mxCell>
        <mxCell id="Yf9Q6vRLoOKOFA073ZTA-48" value="Enviar para o Kafka" style="edgeLabel;html=1;align=center;verticalAlign=middle;resizable=0;points=[];" parent="Yf9Q6vRLoOKOFA073ZTA-47" vertex="1" connectable="0">
          <mxGeometry x="-0.0933" relative="1" as="geometry">
            <mxPoint as="offset" />
          </mxGeometry>
        </mxCell>
        <mxCell id="Yf9Q6vRLoOKOFA073ZTA-58" style="edgeStyle=orthogonalEdgeStyle;rounded=0;orthogonalLoop=1;jettySize=auto;html=1;exitX=1;exitY=0.5;exitDx=0;exitDy=0;entryX=0;entryY=0.5;entryDx=0;entryDy=0;" parent="1" source="Yf9Q6vRLoOKOFA073ZTA-53" target="Yf9Q6vRLoOKOFA073ZTA-28" edge="1">
          <mxGeometry relative="1" as="geometry" />
        </mxCell>
        <mxCell id="Yf9Q6vRLoOKOFA073ZTA-60" style="edgeStyle=orthogonalEdgeStyle;rounded=0;orthogonalLoop=1;jettySize=auto;html=1;" parent="1" source="Yf9Q6vRLoOKOFA073ZTA-53" target="Yf9Q6vRLoOKOFA073ZTA-41" edge="1">
          <mxGeometry relative="1" as="geometry">
            <Array as="points">
              <mxPoint x="-380" y="420" />
              <mxPoint x="-605" y="420" />
            </Array>
          </mxGeometry>
        </mxCell>
        <mxCell id="Yf9Q6vRLoOKOFA073ZTA-61" value="Devolve Pagamento Processado" style="edgeLabel;html=1;align=center;verticalAlign=middle;resizable=0;points=[];" parent="Yf9Q6vRLoOKOFA073ZTA-60" vertex="1" connectable="0">
          <mxGeometry x="-0.0897" y="-1" relative="1" as="geometry">
            <mxPoint as="offset" />
          </mxGeometry>
        </mxCell>
        <mxCell id="Yf9Q6vRLoOKOFA073ZTA-53" value="GATEWAY&lt;br&gt;PAGAMENTO" style="rhombus;whiteSpace=wrap;html=1;fillColor=#60a917;strokeColor=#2D7600;fontColor=#ffffff;" parent="1" vertex="1">
          <mxGeometry x="-450" y="294" width="140" height="80" as="geometry" />
        </mxCell>
        <mxCell id="Yf9Q6vRLoOKOFA073ZTA-54" value="Realizar Pgto" style="shape=flexArrow;endArrow=classic;html=1;exitX=1;exitY=0.5;exitDx=0;exitDy=0;fillColor=#fff2cc;strokeColor=#d6b656;entryX=0;entryY=0.5;entryDx=0;entryDy=0;" parent="1" source="Yf9Q6vRLoOKOFA073ZTA-18" target="Yf9Q6vRLoOKOFA073ZTA-53" edge="1">
          <mxGeometry width="50" height="50" relative="1" as="geometry">
            <mxPoint x="-540" y="335" as="sourcePoint" />
            <mxPoint x="-260" y="334" as="targetPoint" />
          </mxGeometry>
        </mxCell>
      </root>
    </mxGraphModel>
  </diagram>
</mxfile>
